<svg viewBox="0 0 360 520" xmlns="http://www.w3.org/2000/svg">
  <rect width="360" height="520" fill="#0a0a0a"/>
  <rect x="8" y="8" width="344" height="504" fill="none" stroke="#d4af37" stroke-width="3"/>
  <rect x="12" y="12" width="336" height="496" fill="none" stroke="#8b7d1f" stroke-width="1" opacity="0.6"/>

  <!-- угловые узоры -->
  <g stroke="#d4af37" stroke-width="2.5" fill="none">
    <path d="M 20 20 L 32 20 M 20 20 L 20 32 M 28 28 Q 24 24 20 20" stroke-linecap="round" opacity="0.7"/>
    <circle cx="24" cy="24" r="8" opacity="0.5"/>
  </g>
  <g stroke="#d4af37" stroke-width="2.5" fill="none" transform="translate(360, 0) scale(-1, 1)">
    <path d="M 20 20 L 32 20 M 20 20 L 20 32 M 28 28 Q 24 24 20 20" stroke-linecap="round" opacity="0.7"/>
    <circle cx="24" cy="24" r="8" opacity="0.5"/>
  </g>
  <g stroke="#d4af37" stroke-width="2.5" fill="none" transform="translate(0, 520) scale(1, -1)">
    <path d="M 20 20 L 32 20 M 20 20 L 20 32 M 28 28 Q 24 24 20 20" stroke-linecap="round" opacity="0.7"/>
    <circle cx="24" cy="24" r="8" opacity="0.5"/>
  </g>
  <g stroke="#d4af37" stroke-width="2.5" fill="none" transform="translate(360, 520) scale(-1, -1)">
    <path d="M 20 20 L 32 20 M 20 20 L 20 32 M 28 28 Q 24 24 20 20" stroke-linecap="round" opacity="0.7"/>
    <circle cx="24" cy="24" r="8" opacity="0.5"/>
  </g>
</svg>